<?xml version="1.0" encoding="UTF-8" standalone="no"?>
<svg
   xmlns:dc="http://purl.org/dc/elements/1.1/"
   xmlns:cc="http://creativecommons.org/ns#"
   xmlns:rdf="http://www.w3.org/1999/02/22-rdf-syntax-ns#"
   xmlns:svg="http://www.w3.org/2000/svg"
   xmlns="http://www.w3.org/2000/svg"
   xmlns:sodipodi="http://sodipodi.sourceforge.net/DTD/sodipodi-0.dtd"
   xmlns:inkscape="http://www.inkscape.org/namespaces/inkscape"
   height="512pt"
   viewBox="0 0 512 512"
   width="512pt"
   version="1.1"
   id="svg3749"
   sodipodi:docname="browser.svg"
   inkscape:version="0.92.4 (5da689c313, 2019-01-14)">
  <metadata
     id="metadata3755">
    <rdf:RDF>
      <cc:Work
         rdf:about="">
        <dc:format>image/svg+xml</dc:format>
        <dc:type
           rdf:resource="http://purl.org/dc/dcmitype/StillImage" />
      </cc:Work>
    </rdf:RDF>
  </metadata>
  <defs
     id="defs3753" />
  <sodipodi:namedview
     pagecolor="#ffffff"
     bordercolor="#666666"
     borderopacity="1"
     objecttolerance="10"
     gridtolerance="10"
     guidetolerance="10"
     inkscape:pageopacity="0"
     inkscape:pageshadow="2"
     inkscape:window-width="1536"
     inkscape:window-height="801"
     id="namedview3751"
     showgrid="false"
     inkscape:zoom="0.92578125"
     inkscape:cx="341.33333"
     inkscape:cy="341.33333"
     inkscape:window-x="-8"
     inkscape:window-y="-8"
     inkscape:window-maximized="1"
     inkscape:current-layer="svg3749" />
  <path
     d="m457.003906 0h-402.007812c-30.324219 0-54.996094 24.671875-54.996094 54.996094v402.007812c0 30.324219 24.671875 54.996094 54.996094 54.996094h402.007812c30.324219 0 54.996094-24.671875 54.996094-54.996094v-402.007812c0-30.324219-24.671875-54.996094-54.996094-54.996094zm-402.007812 30h402.007812c13.78125 0 24.996094 11.214844 24.996094 24.996094v66.003906h-452v-66.003906c0-13.78125 11.214844-24.996094 24.996094-24.996094zm402.007812 452h-402.007812c-13.78125 0-24.996094-11.214844-24.996094-24.996094v-306.003906h452v306.003906c0 13.78125-11.214844 24.996094-24.996094 24.996094zm0 0"
     id="path3735" />
</svg>
