<?xml version="1.0" encoding="UTF-8" standalone="no"?>
<svg
   xmlns:dc="http://purl.org/dc/elements/1.1/"
   xmlns:cc="http://creativecommons.org/ns#"
   xmlns:rdf="http://www.w3.org/1999/02/22-rdf-syntax-ns#"
   xmlns:svg="http://www.w3.org/2000/svg"
   xmlns="http://www.w3.org/2000/svg"
   xmlns:sodipodi="http://sodipodi.sourceforge.net/DTD/sodipodi-0.dtd"
   xmlns:inkscape="http://www.inkscape.org/namespaces/inkscape"
   version="1.1"
   id="Capa_1"
   x="0px"
   y="0px"
   viewBox="0 0 123px 123px"
   xml:space="preserve"
   sodipodi:docname="correct-mark-red.svg"
   width="123"
   height="123"
   inkscape:version="0.92.4 (5da689c313, 2019-01-14)"><metadata
   id="metadata12"><rdf:RDF><cc:Work
       rdf:about=""><dc:format>image/svg+xml</dc:format><dc:type
         rdf:resource="http://purl.org/dc/dcmitype/StillImage" /></cc:Work></rdf:RDF></metadata><defs
   id="defs10" /><sodipodi:namedview
   pagecolor="#ffffff"
   bordercolor="#666666"
   borderopacity="1"
   objecttolerance="10"
   gridtolerance="10"
   guidetolerance="10"
   inkscape:pageopacity="0"
   inkscape:pageshadow="2"
   inkscape:window-width="1262"
   inkscape:window-height="630"
   id="namedview8"
   showgrid="false"
   inkscape:zoom="1.9186992"
   inkscape:cx="-29.96822"
   inkscape:cy="81.130877"
   inkscape:window-x="0"
   inkscape:window-y="0"
   inkscape:window-maximized="0"
   inkscape:current-layer="Capa_1" />
<g
   id="g4"
   transform="matrix(0.42622702,0,0,0.53820018,3.6570153e-4,-16.156548)"
   style="fill:#800000">
	<path
   style="fill:#800000"
   d="M 283.127,57.184 260.256,35.053 c -7.101,-6.874 -18.438,-6.683 -25.311,0.424 L 113.442,161.085 c -6.88,7.107 -19.404,8.879 -27.985,3.962 L 42.633,140.505 c -8.568,-4.917 -19.512,-1.951 -24.428,6.629 l -15.83,27.615 c -4.917,8.58 -1.951,19.518 6.623,24.434 0,0 103.889,59.46 103.931,59.376 0.048,-0.084 137.25,-141.57 170.617,-176.058 6.873,-7.112 6.682,-18.449 -0.419,-25.317 z"
   id="path2"
   inkscape:connector-curvature="0" />
</g>
<g
   id="g5" /></svg>