<?xml version="1.0" encoding="UTF-8" standalone="no"?>
<!-- Generator: Adobe Illustrator 16.0.0, SVG Export Plug-In . SVG Version: 6.00 Build 0)  -->

<svg
   xmlns:dc="http://purl.org/dc/elements/1.1/"
   xmlns:cc="http://creativecommons.org/ns#"
   xmlns:rdf="http://www.w3.org/1999/02/22-rdf-syntax-ns#"
   xmlns:svg="http://www.w3.org/2000/svg"
   xmlns="http://www.w3.org/2000/svg"
   xmlns:sodipodi="http://sodipodi.sourceforge.net/DTD/sodipodi-0.dtd"
   xmlns:inkscape="http://www.inkscape.org/namespaces/inkscape"
   version="1.1"
   id="Capa_1"
   x="0px"
   y="0px"
   width="123"
   height="123"
   viewBox="0 0 486.733 486.733"
   xml:space="preserve"
   sodipodi:docname="locked-padlock-red.svg"
   inkscape:version="0.92.4 (5da689c313, 2019-01-14)"><metadata
   id="metadata41"><rdf:RDF><cc:Work
       rdf:about=""><dc:format>image/svg+xml</dc:format><dc:type
         rdf:resource="http://purl.org/dc/dcmitype/StillImage" /></cc:Work></rdf:RDF></metadata><defs
   id="defs39" /><sodipodi:namedview
   pagecolor="#ffffff"
   bordercolor="#666666"
   borderopacity="1"
   objecttolerance="10"
   gridtolerance="10"
   guidetolerance="10"
   inkscape:pageopacity="0"
   inkscape:pageshadow="2"
   inkscape:window-width="1920"
   inkscape:window-height="1017"
   id="namedview37"
   showgrid="false"
   inkscape:zoom="0.48486542"
   inkscape:cx="-414.54802"
   inkscape:cy="243.3665"
   inkscape:window-x="1912"
   inkscape:window-y="-8"
   inkscape:window-maximized="1"
   inkscape:current-layer="Capa_1" />
<g
   id="g4"
   transform="matrix(1.3010564,0,0,1,-73.266388,-9.4976002e-7)">
	<path
   d="m 403.88,196.563 h -9.484 V 152.175 C 394.396,70.076 329.245,1.494 247.814,0.03 c -2.225,-0.04 -6.671,-0.04 -8.895,0 C 157.486,1.494 92.336,70.076 92.336,152.175 v 44.388 h -9.485 c -14.616,0 -26.538,15.082 -26.538,33.709 v 222.632 c 0,18.606 11.922,33.829 26.539,33.829 H 403.88 c 14.616,0 26.539,-15.223 26.539,-33.829 V 230.272 c 0,-18.626 -11.922,-33.709 -26.539,-33.709 z M 273.442,341.362 v 67.271 c 0,7.703 -6.449,14.222 -14.158,14.222 H 227.45 c -7.71,0 -14.159,-6.519 -14.159,-14.222 v -67.271 c -7.477,-7.36 -11.83,-17.537 -11.83,-28.795 0,-21.334 16.491,-39.666 37.459,-40.513 2.222,-0.09 6.673,-0.09 8.895,0 20.968,0.847 37.459,19.179 37.459,40.513 -0.002,11.258 -4.355,21.435 -11.832,28.795 z m 58.444,-144.799 h -84.072 -8.895 -84.072 v -44.388 c 0,-48.905 39.744,-89.342 88.519,-89.342 48.775,0 88.521,40.437 88.521,89.342 v 44.388 z"
   id="path2"
   inkscape:connector-curvature="0" />
</g>
<g
   id="g6">
</g>
<g
   id="g8">
</g>
<g
   id="g10">
</g>
<g
   id="g12">
</g>
<g
   id="g14">
</g>
<g
   id="g16">
</g>
<g
   id="g18">
</g>
<g
   id="g20">
</g>
<g
   id="g22">
</g>
<g
   id="g24">
</g>
<g
   id="g26">
</g>
<g
   id="g28">
</g>
<g
   id="g30">
</g>
<g
   id="g32">
</g>
<g
   id="g34">
</g>
<path
   style="fill:#aa0000;stroke-width:2.062428"
   d="m 53.210641,96.366694 c 0,-5.119901 -1.153345,-11.15571 -2.562989,-13.41291 -4.168393,-6.674658 0.262141,-11.308241 10.812701,-11.308241 10.550561,0 14.981095,4.633583 10.812702,11.308241 -1.409645,2.2572 -2.56299,8.293009 -2.56299,13.41291 v 9.308906 h -8.249712 -8.249712 z"
   id="path23"
   inkscape:connector-curvature="0"
   transform="scale(3.9571789)" /></svg>