<?xml version="1.0" encoding="UTF-8" standalone="no"?>
<!-- Generator: Adobe Illustrator 16.0.0, SVG Export Plug-In . SVG Version: 6.00 Build 0)  -->

<svg
   xmlns:dc="http://purl.org/dc/elements/1.1/"
   xmlns:cc="http://creativecommons.org/ns#"
   xmlns:rdf="http://www.w3.org/1999/02/22-rdf-syntax-ns#"
   xmlns:svg="http://www.w3.org/2000/svg"
   xmlns="http://www.w3.org/2000/svg"
   xmlns:sodipodi="http://sodipodi.sourceforge.net/DTD/sodipodi-0.dtd"
   xmlns:inkscape="http://www.inkscape.org/namespaces/inkscape"
   version="1.1"
   id="Capa_1"
   x="0px"
   y="0px"
   width="123"
   height="123"
   viewBox="0 0 80.13 80.13"
   xml:space="preserve"
   sodipodi:docname="multiple-users-silhouette-color.svg"
   inkscape:version="0.92.4 (5da689c313, 2019-01-14)"><metadata
   id="metadata41"><rdf:RDF><cc:Work
       rdf:about=""><dc:format>image/svg+xml</dc:format><dc:type
         rdf:resource="http://purl.org/dc/dcmitype/StillImage" /></cc:Work></rdf:RDF></metadata><defs
   id="defs39" /><sodipodi:namedview
   pagecolor="#ffffff"
   bordercolor="#666666"
   borderopacity="1"
   objecttolerance="10"
   gridtolerance="10"
   guidetolerance="10"
   inkscape:pageopacity="0"
   inkscape:pageshadow="2"
   inkscape:window-width="1508"
   inkscape:window-height="746"
   id="namedview37"
   showgrid="false"
   inkscape:zoom="2.9452141"
   inkscape:cx="-19.523199"
   inkscape:cy="76.603418"
   inkscape:window-x="0"
   inkscape:window-y="0"
   inkscape:window-maximized="0"
   inkscape:current-layer="Capa_1" />
<g
   id="g4"
   transform="matrix(1,0,0,1.1882906,0,-7.5432687)">
	<path
   d="m 48.355,17.922 c 3.705,2.323 6.303,6.254 6.776,10.817 1.511,0.706 3.188,1.112 4.966,1.112 6.491,0 11.752,-5.261 11.752,-11.751 0,-6.491 -5.261,-11.752 -11.752,-11.752 -6.429,0.002 -11.644,5.169 -11.742,11.574 z m -7.699,24.062 c 6.491,0 11.752,-5.262 11.752,-11.752 0,-6.49 -5.262,-11.751 -11.752,-11.751 -6.49,0 -11.754,5.262 -11.754,11.752 0,6.49 5.264,11.751 11.754,11.751 z m 4.985,0.801 h -9.972 c -8.297,0 -15.047,6.751 -15.047,15.048 v 12.195 l 0.031,0.191 0.84,0.263 c 7.918,2.474 14.797,3.299 20.459,3.299 11.059,0 17.469,-3.153 17.864,-3.354 l 0.785,-0.397 h 0.084 V 57.833 C 60.688,49.536 53.938,42.785 45.641,42.785 Z M 65.084,30.653 h -9.895 c -0.107,3.959 -1.797,7.524 -4.47,10.088 7.375,2.193 12.771,9.032 12.771,17.11 v 3.758 c 9.77,-0.358 15.4,-3.127 15.771,-3.313 l 0.785,-0.398 H 80.13 V 45.699 c 0,-8.296 -6.75,-15.046 -15.046,-15.046 z m -45.049,-0.8 c 2.299,0 4.438,-0.671 6.25,-1.814 0.576,-3.757 2.59,-7.04 5.467,-9.276 0.012,-0.22 0.033,-0.438 0.033,-0.66 0,-6.491 -5.262,-11.752 -11.75,-11.752 -6.492,0 -11.752,5.261 -11.752,11.752 0,6.488 5.26,11.75 11.752,11.75 z M 30.589,40.741 C 27.929,38.19 26.245,34.644 26.122,30.709 25.755,30.682 25.392,30.653 25.018,30.653 H 15.047 C 6.75,30.653 0,37.403 0,45.699 v 12.197 l 0.031,0.188 0.84,0.265 c 6.352,1.983 12.021,2.897 16.945,3.185 v -3.683 c 0.002,-8.078 5.396,-14.915 12.773,-17.11 z"
   id="path2"
   inkscape:connector-curvature="0" />
</g>
<g
   id="g6">
</g>
<g
   id="g8">
</g>
<g
   id="g10">
</g>
<g
   id="g12">
</g>
<g
   id="g14">
</g>
<g
   id="g16">
</g>
<g
   id="g18">
</g>
<g
   id="g20">
</g>
<g
   id="g22">
</g>
<g
   id="g24">
</g>
<g
   id="g26">
</g>
<g
   id="g28">
</g>
<g
   id="g30">
</g>
<g
   id="g32">
</g>
<g
   id="g34">
</g>
<path
   style="fill:#aa0000;stroke-width:0.3395339"
   d="m 57.744045,122.55235 c -6.720802,-0.59775 -16.183556,-2.68036 -22.520291,-4.95638 l -3.341522,-1.2002 v -12.82448 c 0,-14.150389 0.206997,-16.246746 2.085321,-21.119114 2.192367,-5.686993 7.031011,-11.211422 11.947309,-13.640611 4.209211,-2.079811 6.085501,-2.310722 17.713789,-2.179996 10.032968,0.112792 10.223294,0.128045 12.666919,1.015202 5.661827,2.055522 10.456585,6.478743 13.319772,12.287651 3.063,6.214286 3.153965,6.83368 3.30175,22.481698 l 0.128551,13.61175 -2.315509,1.20961 c -8.226105,4.29727 -21.101753,6.37186 -32.986089,5.31487 z"
   id="path23"
   inkscape:connector-curvature="0"
   transform="scale(0.65146341)" /><path
   style="fill:#aa0000;stroke-width:0.3395339"
   d="m 58.875177,64.395623 c -4.067957,-0.99167 -8.551495,-4.450892 -10.974003,-8.466858 -6.723436,-11.145934 -2.812137,-26.91329 7.950982,-32.052251 2.624679,-1.25318 2.769441,-1.281258 6.605736,-1.281258 3.873409,0 3.95554,0.01645 6.595847,1.321364 5.149157,2.544852 9.134275,7.817256 10.549825,13.957661 0.798886,3.465443 0.722223,8.6499 -0.176343,11.925203 -2.861333,10.429651 -11.749424,16.742007 -20.552044,14.596139 z"
   id="path25"
   inkscape:connector-curvature="0"
   transform="scale(0.65146341)" /></svg>