<?xml version="1.0" encoding="UTF-8" standalone="no"?>
<!-- Generator: Adobe Illustrator 16.0.0, SVG Export Plug-In . SVG Version: 6.00 Build 0)  -->

<svg
   xmlns:dc="http://purl.org/dc/elements/1.1/"
   xmlns:cc="http://creativecommons.org/ns#"
   xmlns:rdf="http://www.w3.org/1999/02/22-rdf-syntax-ns#"
   xmlns:svg="http://www.w3.org/2000/svg"
   xmlns="http://www.w3.org/2000/svg"
   xmlns:sodipodi="http://sodipodi.sourceforge.net/DTD/sodipodi-0.dtd"
   xmlns:inkscape="http://www.inkscape.org/namespaces/inkscape"
   version="1.1"
   id="Capa_1"
   x="0px"
   y="0px"
   width="123"
   height="123"
   viewBox="0 0 401.994 401.994"
   xml:space="preserve"
   sodipodi:docname="plus-black-symbol.svg"
   inkscape:version="0.92.4 (5da689c313, 2019-01-14)"><metadata
   id="metadata41"><rdf:RDF><cc:Work
       rdf:about=""><dc:format>image/svg+xml</dc:format><dc:type
         rdf:resource="http://purl.org/dc/dcmitype/StillImage" /></cc:Work></rdf:RDF></metadata><defs
   id="defs39" /><sodipodi:namedview
   pagecolor="#ffffff"
   bordercolor="#666666"
   borderopacity="1"
   objecttolerance="10"
   gridtolerance="10"
   guidetolerance="10"
   inkscape:pageopacity="0"
   inkscape:pageshadow="2"
   inkscape:window-width="742"
   inkscape:window-height="480"
   id="namedview37"
   showgrid="false"
   inkscape:zoom="0.58707346"
   inkscape:cx="200.99699"
   inkscape:cy="200.99699"
   inkscape:window-x="0"
   inkscape:window-y="0"
   inkscape:window-maximized="0"
   inkscape:current-layer="Capa_1" />
<g
   id="g4">
	<path
   d="m 394,154.175 c -5.331,-5.33 -11.806,-7.994 -19.417,-7.994 H 255.811 V 27.406 c 0,-7.611 -2.666,-14.084 -7.994,-19.414 C 242.488,2.666 236.02,0 228.398,0 h -54.812 c -7.612,0 -14.084,2.663 -19.414,7.993 -5.33,5.33 -7.994,11.803 -7.994,19.414 V 146.182 H 27.407 c -7.611,0 -14.084,2.664 -19.414,7.994 C 2.663,159.506 0,165.973 0,173.589 v 54.819 c 0,7.618 2.662,14.086 7.992,19.411 5.33,5.332 11.803,7.994 19.414,7.994 H 146.177 V 374.59 c 0,7.611 2.664,14.089 7.994,19.417 5.33,5.325 11.802,7.987 19.414,7.987 h 54.816 c 7.617,0 14.086,-2.662 19.417,-7.987 5.332,-5.331 7.994,-11.806 7.994,-19.417 V 255.813 h 118.77 c 7.618,0 14.089,-2.662 19.417,-7.994 5.329,-5.325 7.994,-11.793 7.994,-19.411 v -54.819 c -0.002,-7.616 -2.661,-14.087 -7.993,-19.414 z"
   id="path2"
   inkscape:connector-curvature="0" />
</g>
<g
   id="g6">
</g>
<g
   id="g8">
</g>
<g
   id="g10">
</g>
<g
   id="g12">
</g>
<g
   id="g14">
</g>
<g
   id="g16">
</g>
<g
   id="g18">
</g>
<g
   id="g20">
</g>
<g
   id="g22">
</g>
<g
   id="g24">
</g>
<g
   id="g26">
</g>
<g
   id="g28">
</g>
<g
   id="g30">
</g>
<g
   id="g32">
</g>
<g
   id="g34">
</g>
</svg>