<?xml version="1.0" encoding="UTF-8" standalone="no"?>
<svg
   xmlns:dc="http://purl.org/dc/elements/1.1/"
   xmlns:cc="http://creativecommons.org/ns#"
   xmlns:rdf="http://www.w3.org/1999/02/22-rdf-syntax-ns#"
   xmlns:svg="http://www.w3.org/2000/svg"
   xmlns="http://www.w3.org/2000/svg"
   xmlns:sodipodi="http://sodipodi.sourceforge.net/DTD/sodipodi-0.dtd"
   xmlns:inkscape="http://www.inkscape.org/namespaces/inkscape"
   version="1.1"
   id="Capa_1"
   x="0px"
   y="0px"
   width="124"
   height="124"
   viewBox="0 0 401.998 401.998"
   xml:space="preserve"
   sodipodi:docname="telephone.svg"
   inkscape:version="0.92.4 (5da689c313, 2019-01-14)"><metadata
   id="metadata3733"><rdf:RDF><cc:Work
       rdf:about=""><dc:format>image/svg+xml</dc:format><dc:type
         rdf:resource="http://purl.org/dc/dcmitype/StillImage" /></cc:Work></rdf:RDF></metadata><defs
   id="defs3731" /><sodipodi:namedview
   pagecolor="#ffffff"
   bordercolor="#666666"
   borderopacity="1"
   objecttolerance="10"
   gridtolerance="10"
   guidetolerance="10"
   inkscape:pageopacity="0"
   inkscape:pageshadow="2"
   inkscape:window-width="1920"
   inkscape:window-height="1017"
   id="namedview3729"
   showgrid="false"
   inkscape:zoom="2.1094633"
   inkscape:cx="117.80248"
   inkscape:cy="200.99899"
   inkscape:window-x="1912"
   inkscape:window-y="-8"
   inkscape:window-maximized="1"
   inkscape:current-layer="g3726" />
<g
   id="g3726"
   transform="matrix(0.24877225,0,0,0.24875684,-0.00248773,301.99799)">
	<path
   style="stroke-width:3.23692107"
   d="m 800.12359,-249.61704 c -118.45632,0.34749 -222.54787,11.37096 -312.30857,33.0684 -54.19659,12.84522 -110.13451,33.14533 -167.77284,60.85498 -5.19492,2.64863 -19.69304,9.45538 -43.5379,20.43809 -23.83339,11.00802 -40.31525,18.72221 -49.41047,23.11723 -9.09978,4.39516 -22.54427,11.64544 -40.29788,21.739493 -17.78317,10.124021 -32.94612,20.002392 -45.5123,29.649281 -12.541,9.685952 -24.67358,20.440819 -36.3491,32.277374 C 65.134121,11.877457 35.985915,63.803712 17.50433,127.27595 -1.8243051,195.98547 -5.1307261,245.84013 7.5564229,276.87472 c 6.0900021,15.73749 16.4507681,35.27243 31.0587311,58.63515 14.585179,23.36744 27.785337,40.91011 39.538499,52.68996 6.097274,6.13869 11.291124,10.0571 15.668584,11.81384 10.417103,5.22979 38.401443,0.13064 83.911743,-15.33497 13.00286,-3.51255 31.22495,-8.84452 54.62488,-15.89637 23.41357,-7.06556 44.7795,-13.36752 64.06655,-18.88161 19.30976,-5.54165 37.6267,-10.50077 54.95395,-14.92674 3.03305,-0.44288 12.23173,-2.10176 27.64152,-4.97556 15.40058,-2.90126 27.74554,-5.9998 37.08316,-9.31323 9.30567,-3.31776 17.00162,-8.04485 23.0599,-14.18666 8.65205,-8.77147 13.26354,-25.93999 13.84607,-51.5163 0.56648,-25.59249 -1.00544,-51.16708 -4.78412,-76.75135 -3.76947,-25.57981 -5.77549,-50.72409 -6.07505,-75.42455 -0.28604,-24.723611 3.45974,-41.02717 11.23886,-48.913692 3.90547,-3.959321 9.87487,-7.807969 17.87079,-11.55866 8.00736,-3.734638 14.30979,-6.352525 18.85799,-7.935399 4.55291,-1.523009 12.76065,-3.740355 24.70524,-6.608572 11.94453,-2.895783 18.57002,-4.537395 19.8705,-4.975569 92.35401,-26.9397787 181.04959,-40.533584 266.08751,-40.799577 85.04942,-0.227484 173.81395,12.8256231 266.31537,39.243131 1.3029,0.435014 7.9373,2.065689 19.8704,4.873517 11.9469,2.80788 20.1876,4.954706 24.7559,6.480965 4.5569,1.514912 10.8505,4.136214 18.8833,7.833347 8.0327,3.697108 14.026,7.501395 17.9467,11.431052 7.8279,7.845602 11.6646,24.121609 11.5174,48.837117 -0.1519,24.70648 -2.0257,49.86486 -5.6448,75.45004 -3.6305,25.59678 -5.0684,51.19281 -4.3538,76.77695 0.726,25.58621 5.4234,42.74427 14.1246,51.46521 6.0879,6.10181 13.8025,10.77927 23.1357,14.03367 9.3493,3.26575 21.715,6.28356 37.1339,9.08356 15.4165,2.79322 24.6429,4.38781 27.692,4.82247 17.3542,4.32263 35.6965,9.21669 55.03,14.62052 19.3314,5.40147 40.7151,11.57435 64.1677,18.49898 23.4391,6.92458 41.6694,12.13504 54.701,15.5901 45.5894,15.17889 73.6207,20.1406 84.0129,14.85017 4.3356,-1.76375 9.5158,-5.72987 15.5673,-11.86489 11.6891,-11.85041 24.7719,-29.47213 39.2348,-52.91966 14.4766,-23.44747 24.7305,-43.04094 30.7549,-58.81371 12.5016,-31.08725 8.9007,-80.93813 -10.8085,-149.54781 -18.8281,-63.358872 -48.2879,-115.1182789 -88.3161,-155.237747 -11.7395,-11.766131 -23.9062,-22.451226 -36.5262,-32.047712 -12.6088,-9.585078 -27.8384,-19.362088 -45.6643,-29.368631 -17.8146,-10.00891 -31.2908,-17.21649 -40.3992,-21.56082 -9.1152,-4.34667 -25.6078,-11.9421 -49.5116,-22.81114 -23.8902,-10.87348 -38.4502,-17.59924 -43.6645,-20.20839 -57.7884,-27.39182 -113.8274,-47.35369 -168.1019,-59.88554 -89.8628,-21.18323 -194.0525,-31.5971 -312.51111,-31.25665 z"
   id="path3724"
   inkscape:connector-curvature="0" />
</g>
</svg>